# Blender v3.0.0 OBJ File: 'face.blend'
# www.blender.org
mtllib face.mtl
o Icosphere
v 0.000000 -1.082696 -0.000000
v -0.509601 -0.693399 -0.370243
v 0.194647 -0.693400 -0.599071
v 0.629901 -0.693397 -0.000000
v 0.194647 -0.693400 0.599071
v -0.509601 -0.693399 0.370243
v -0.194647 -0.063489 -0.599071
v 0.509601 -0.063490 -0.370243
v 0.509601 -0.063490 0.370243
v -0.194647 -0.063489 0.599071
v -0.629901 -0.063492 0.000000
v 0.000000 0.325807 -0.000000
v 0.114409 -0.977519 -0.352122
v -0.299534 -0.977519 -0.217622
v -0.185126 -0.748696 -0.569747
v -0.599070 -0.748695 0.000000
v -0.299534 -0.977519 0.217622
v 0.370246 -0.977517 -0.000000
v 0.484658 -0.748695 -0.352123
v 0.114410 -0.977519 0.352122
v 0.484658 -0.748695 0.352123
v -0.185126 -0.748696 0.569747
v -0.669784 -0.378444 -0.217622
v -0.669784 -0.378444 0.217623
v -0.000000 -0.378444 -0.704251
v -0.413949 -0.378444 -0.569751
v 0.669784 -0.378444 -0.217623
v 0.413949 -0.378444 -0.569751
v 0.413949 -0.378444 0.569751
v 0.669784 -0.378444 0.217622
v -0.413949 -0.378444 0.569751
v 0.000000 -0.378444 0.704251
v -0.484658 -0.008194 -0.352123
v 0.185126 -0.008193 -0.569747
v 0.599070 -0.008194 -0.000000
v 0.185126 -0.008193 0.569747
v -0.484658 -0.008194 0.352123
v -0.114410 0.220630 -0.352122
v -0.370246 0.220628 0.000000
v 0.299534 0.220630 -0.217622
v 0.299534 0.220630 0.217622
v -0.114409 0.220630 0.352122
vt 0.245791 0.499749
vt 0.120783 0.490376
vt 0.202569 0.391289
vt 0.005924 0.499750
vt 0.051976 0.613436
vt 0.325301 0.453112
vt 0.319365 0.590406
vt 0.192966 0.613436
vt 0.110320 0.071318
vt 0.205842 0.005924
vt 0.221575 0.121347
vt 0.916285 0.112771
vt 0.994076 0.063323
vt 0.993050 0.200745
vt 0.676568 0.121340
vt 0.791019 0.107868
vt 0.726651 0.233311
vt 0.560325 0.314047
vt 0.449070 0.264019
vt 0.572627 0.192682
vt 0.855674 0.711553
vt 0.733767 0.711553
vt 0.794895 0.613641
vt 0.098017 0.192682
vt 0.867553 0.228275
vt 0.350118 0.192684
vt 0.341246 0.077260
vt 0.449070 0.121347
vt 0.664721 0.264017
vt 0.935798 0.618676
vt 0.110319 0.314047
vt 0.221575 0.264019
vt 0.205843 0.379442
vt 0.459955 0.395644
vt 0.581784 0.391290
vt 0.524191 0.491322
vt 0.337148 0.605007
vt 0.383200 0.491321
vt 0.452007 0.614382
vt 0.746164 0.498137
vt 0.668372 0.448688
vt 0.793234 0.391289
vt 0.985881 0.506705
vt 0.871430 0.493234
vt 0.934135 0.396326
vt 0.656525 0.651646
vt 0.533793 0.713468
vt 0.577016 0.605008
vt 0.392802 0.713468
vt 0.650590 0.514351
vt 0.072564 0.379442
vt 0.329399 0.308107
vt 0.320526 0.192684
vt 0.669399 0.586110
vt 0.664720 0.121345
vt 0.560324 0.071318
vt 0.464802 0.005924
vt 0.353655 0.391289
vt 0.928681 0.326187
vt 0.806775 0.326187
vt 0.005924 0.264017
vt 0.598081 0.379442
vt 0.005925 0.121345
vt 0.329399 0.077260
vt 0.128730 0.709114
vt 0.022430 0.713468
vt 0.250559 0.713468
vt 0.464802 0.379442
vt 0.341246 0.308107
vt 0.728314 0.010960
vt 0.869215 0.005924
vt 0.061578 0.391289
vn 0.0000 -1.0000 0.0000
vn -0.4253 -0.8506 -0.3090
vn 0.1625 -0.8506 -0.5000
vn -0.7236 -0.4472 -0.5257
vn -0.8506 -0.5257 0.0000
vn 0.5257 -0.8506 0.0000
vn 0.1625 -0.8506 0.5000
vn -0.4253 -0.8506 0.3090
vn -0.9510 0.0000 -0.3090
vn 0.2764 -0.4472 -0.8506
vn -0.2629 -0.5257 -0.8090
vn 0.0000 0.0000 -1.0000
vn 0.8944 -0.4472 0.0000
vn 0.6882 -0.5257 -0.5000
vn 0.9510 0.0000 -0.3090
vn 0.2764 -0.4472 0.8506
vn 0.6882 -0.5257 0.5000
vn 0.5878 0.0000 0.8090
vn -0.7236 -0.4472 0.5257
vn -0.2629 -0.5257 0.8090
vn -0.5878 0.0000 0.8090
vn -0.5878 0.0000 -0.8090
vn 0.5878 0.0000 -0.8090
vn 0.9510 0.0000 0.3090
vn 0.0000 0.0000 1.0000
vn -0.9510 0.0000 0.3090
vn -0.2764 0.4472 -0.8506
vn -0.6882 0.5257 -0.5000
vn -0.1625 0.8506 -0.5000
vn 0.7236 0.4472 -0.5257
vn 0.2629 0.5257 -0.8090
vn 0.4253 0.8506 -0.3090
vn 0.7236 0.4472 0.5257
vn 0.8506 0.5257 0.0000
vn 0.4253 0.8506 0.3090
vn -0.2764 0.4472 0.8506
vn 0.2629 0.5257 0.8090
vn -0.1625 0.8506 0.5000
vn -0.8944 0.4472 0.0000
vn -0.6882 0.5257 0.5000
vn -0.5257 0.8506 0.0000
vn 0.0000 1.0000 0.0000
usemtl Material.001
s 1
f 1/1/1 14/2/2 13/3/3
f 2/4/4 14/2/2 16/5/5
f 1/1/1 13/3/3 18/6/6
f 1/1/1 18/6/6 20/7/7
f 1/1/1 20/7/7 17/8/8
f 2/9/4 16/10/5 23/11/9
f 3/12/10 15/13/11 25/14/12
f 4/15/13 19/16/14 27/17/15
f 5/18/16 21/19/17 29/20/18
f 6/21/19 22/22/20 31/23/21
f 2/9/4 23/11/9 26/24/22
f 3/12/10 25/14/12 28/25/23
f 4/26/13 27/27/15 30/28/24
f 5/18/16 29/20/18 32/29/25
f 6/21/19 31/23/21 24/30/26
f 7/31/27 33/32/28 38/33/29
f 8/34/30 34/35/31 40/36/32
f 9/37/33 35/38/34 41/39/35
f 10/40/36 36/41/37 42/42/38
f 11/43/39 37/44/40 39/45/41
f 39/46/41 42/47/38 12/48/42
f 39/45/41 37/44/40 42/42/38
f 37/44/40 10/40/36 42/42/38
f 42/47/38 41/39/35 12/48/42
f 42/47/38 36/49/37 41/39/35
f 36/49/37 9/37/33 41/39/35
f 41/39/35 40/36/32 12/48/42
f 41/39/35 35/38/34 40/36/32
f 35/38/34 8/34/30 40/36/32
f 40/36/32 38/50/29 12/48/42
f 40/36/32 34/35/31 38/50/29
f 34/51/31 7/31/27 38/33/29
f 38/50/29 39/46/41 12/48/42
f 38/33/29 33/32/28 39/52/41
f 33/32/28 11/53/39 39/52/41
f 24/30/26 37/44/40 11/43/39
f 24/30/26 31/23/21 37/44/40
f 31/23/21 10/40/36 37/44/40
f 32/54/25 36/41/37 10/40/36
f 32/29/25 29/20/18 36/55/37
f 29/20/18 9/56/33 36/55/37
f 30/28/24 35/57/34 9/56/33
f 30/28/24 27/27/15 35/57/34
f 27/58/15 8/34/30 35/38/34
f 28/25/23 34/59/31 8/60/30
f 28/25/23 25/14/12 34/59/31
f 25/61/12 7/31/27 34/51/31
f 26/24/22 33/32/28 7/31/27
f 26/24/22 23/11/9 33/32/28
f 23/11/9 11/53/39 33/32/28
f 31/23/21 32/54/25 10/40/36
f 31/23/21 22/22/20 32/54/25
f 22/62/20 5/18/16 32/29/25
f 29/20/18 30/28/24 9/56/33
f 29/20/18 21/19/17 30/28/24
f 21/19/17 4/26/13 30/28/24
f 27/17/15 28/25/23 8/60/30
f 27/17/15 19/16/14 28/25/23
f 19/16/14 3/12/10 28/25/23
f 25/61/12 26/24/22 7/31/27
f 25/61/12 15/63/11 26/24/22
f 15/63/11 2/9/4 26/24/22
f 23/11/9 24/64/26 11/53/39
f 23/11/9 16/10/5 24/64/26
f 16/5/5 6/65/19 24/66/26
f 17/8/8 22/67/20 6/65/19
f 17/8/8 20/7/7 22/67/20
f 20/68/7 5/18/16 22/62/20
f 20/68/7 21/19/17 5/18/16
f 20/68/7 18/69/6 21/19/17
f 18/69/6 4/26/13 21/19/17
f 18/70/6 19/16/14 4/15/13
f 18/70/6 13/71/3 19/16/14
f 13/71/3 3/12/10 19/16/14
f 16/5/5 17/8/8 6/65/19
f 16/5/5 14/2/2 17/8/8
f 14/2/2 1/1/1 17/8/8
f 13/71/3 15/13/11 3/12/10
f 13/3/3 14/2/2 15/72/11
f 14/2/2 2/4/4 15/72/11
