# Blender v3.0.0 OBJ File: 'textBoard.blend'
# www.blender.org
mtllib textBoard.mtl
o Cube_Cube.001
v -3.193860 -0.395522 0.026441
v -3.193860 0.395522 0.026441
v -3.193860 -0.395522 -0.026441
v -3.193860 0.395522 -0.026441
v 3.193860 -0.395522 0.026441
v 3.193860 0.395522 0.026441
v 3.193860 -0.395522 -0.026441
v 3.193860 0.395522 -0.026441
vt 0.000000 -0.004717
vt 0.000000 1.004717
vt 1.000000 1.004717
vt 1.000000 -0.004717
vt 1.000000 -0.004717
vt 1.000000 1.004717
vt 0.000000 1.004717
vt 0.000000 -0.004717
vn 0.0000 0.0000 -1.0000
vn 0.0000 0.0000 1.0000
usemtl None
s off
f 3/1/1 4/2/1 8/3/1 7/4/1
f 5/5/2 6/6/2 2/7/2 1/8/2
